# xmcd CD database file
#
# Track frame offsets:
#	150
#	14130
#	29197
#	40576
#
# Disc length: 719 seconds
#
# Revision: 1
# Processed by: cddbd v1.5.1PL2 Copyright (c) Steve Scherf et al.
# Submitted via: CDValet v3.31 - Copyright (c) 1997 Greg Leichner
#
DISCID=3102cd04
DTITLE=Black and White - So Much For The Classics - Vol. 1
DYEAR=1900
DGENRE=
TTITLE0=Something Else
TTITLE1=Lonely Blue Boy
TTITLE2=Pipeline
TTITLE3=Money Honey
EXTD=Come see the band at: http://BlackandWhiteBand.com
EXTT0=
EXTT1=
EXTT2=
EXTT3=
PLAYORDER=
